<svg width="200" height="200" xmlns="http://www.w3.org/2000/svg" xmlns:xlink="http://www.w3.org/1999/xlink">
    <defs>
        <linearGradient x1="50%" y1="0%" x2="46.439%" y2="129.451%" id="b">
            <stop stop-color="#EAF1FC" offset="0%"/>
            <stop stop-color="#FFF" offset="100%"/>
        </linearGradient>
        <linearGradient x1="50%" y1="8.859%" x2="50%" y2="100%" id="d">
            <stop stop-color="#FFF" offset="0%"/>
            <stop stop-color="#EDF3FC" offset="100%"/>
        </linearGradient>
        <linearGradient x1="50%" y1="33.333%" x2="82.325%" y2="61.196%" id="e">
            <stop stop-color="#FFF" offset="0%"/>
            <stop stop-color="#D8E0ED" offset="100%"/>
        </linearGradient>
        <linearGradient x1="50%" y1="0%" x2="50%" y2="99.383%" id="f">
            <stop stop-color="#B08363" offset="0%"/>
            <stop stop-color="#E9BB9E" offset="100%"/>
        </linearGradient>
        <linearGradient x1="50%" y1="0%" x2="50%" y2="99.383%" id="g">
            <stop stop-color="#B08363" offset="0%"/>
            <stop stop-color="#E9BB9E" offset="100%"/>
        </linearGradient>
        <linearGradient x1="50%" y1="0%" x2="50%" y2="99.383%" id="h">
            <stop stop-color="#B08363" offset="0%"/>
            <stop stop-color="#E9BB9E" offset="100%"/>
        </linearGradient>
        <linearGradient x1="50%" y1="0%" x2="50%" y2="99.383%" id="i">
            <stop stop-color="#B08363" offset="0%"/>
            <stop stop-color="#E9BB9E" offset="100%"/>
        </linearGradient>
        <linearGradient x1="50%" y1="0%" x2="50%" y2="99.383%" id="j">
            <stop stop-color="#B08363" offset="0%"/>
            <stop stop-color="#E9BB9E" offset="100%"/>
        </linearGradient>
        <linearGradient x1="50%" y1="0%" x2="50%" y2="99.383%" id="k">
            <stop stop-color="#B08363" offset="0%"/>
            <stop stop-color="#E9BB9E" offset="100%"/>
        </linearGradient>
        <linearGradient x1="50%" y1="0%" x2="50%" y2="99.383%" id="l">
            <stop stop-color="#B08363" offset="0%"/>
            <stop stop-color="#E9BB9E" offset="100%"/>
        </linearGradient>
        <linearGradient x1="50%" y1="0%" x2="50%" y2="99.383%" id="m">
            <stop stop-color="#B08363" offset="0%"/>
            <stop stop-color="#E9BB9E" offset="100%"/>
        </linearGradient>
        <linearGradient x1="50%" y1="0%" x2="50%" y2="99.383%" id="n">
            <stop stop-color="#B08363" offset="0%"/>
            <stop stop-color="#E9BB9E" offset="100%"/>
        </linearGradient>
        <linearGradient x1="50%" y1="0%" x2="50%" y2="99.383%" id="o">
            <stop stop-color="#B08363" offset="0%"/>
            <stop stop-color="#E9BB9E" offset="100%"/>
        </linearGradient>
        <linearGradient x1="50%" y1="0%" x2="50%" y2="99.383%" id="p">
            <stop stop-color="#B08363" offset="0%"/>
            <stop stop-color="#E9BB9E" offset="100%"/>
        </linearGradient>
        <linearGradient x1="50%" y1="32.303%" x2="82.325%" y2="61.888%" id="q">
            <stop stop-color="#FFF" offset="0%"/>
            <stop stop-color="#D8E0ED" offset="100%"/>
        </linearGradient>
        <linearGradient x1="12.019%" y1="68.638%" x2="25.501%" y2="47.877%" id="r">
            <stop stop-color="#F8B845" offset="0%"/>
            <stop stop-color="#EB9440" offset="100%"/>
        </linearGradient>
        <linearGradient x1="42.509%" y1="28.18%" x2="57.794%" y2="82.708%" id="s">
            <stop stop-color="#EBA2C4" offset="0%"/>
            <stop stop-color="#B46189" offset="100%"/>
        </linearGradient>
        <linearGradient x1="46.363%" y1="-6.595%" x2="53.4%" y2="50%" id="t">
            <stop stop-color="#EBA2C4" offset="0%"/>
            <stop stop-color="#D079A3" offset="100%"/>
        </linearGradient>
        <linearGradient x1="50%" y1="0%" x2="50%" y2="100%" id="u">
            <stop stop-color="#EBA2C4" offset="0%"/>
            <stop stop-color="#D079A3" offset="100%"/>
        </linearGradient>
        <linearGradient x1="50%" y1="0%" x2="50%" y2="100%" id="v">
            <stop stop-color="#6A3C40" offset="0%"/>
            <stop stop-color="#370B0F" offset="100%"/>
        </linearGradient>
        <linearGradient x1="50%" y1="0%" x2="50%" y2="100%" id="w">
            <stop stop-color="#EBA2C4" offset="0%"/>
            <stop stop-color="#D079A3" offset="100%"/>
        </linearGradient>
        <linearGradient x1="50%" y1="0%" x2="50%" y2="100%" id="x">
            <stop stop-color="#6A3C40" offset="0%"/>
            <stop stop-color="#370B0F" offset="100%"/>
        </linearGradient>
        <linearGradient x1="50%" y1="0%" x2="50%" y2="100%" id="y">
            <stop stop-color="#EBA2C4" offset="0%"/>
            <stop stop-color="#D079A3" offset="100%"/>
        </linearGradient>
        <linearGradient x1="50%" y1="0%" x2="50%" y2="100%" id="z">
            <stop stop-color="#D78B73" offset="0%"/>
            <stop stop-color="#E8A489" offset="100%"/>
        </linearGradient>
        <linearGradient x1="64.195%" y1="17.992%" x2="35.805%" y2="26.341%" id="A">
            <stop stop-color="#B36F57" offset="0%"/>
            <stop stop-color="#E0987E" offset="100%"/>
        </linearGradient>
        <linearGradient x1="100%" y1="50%" x2="0%" y2="50%" id="B">
            <stop stop-color="#237373" offset="0%"/>
            <stop stop-color="#1A5E63" offset="100%"/>
        </linearGradient>
        <linearGradient x1="40.609%" y1="28.18%" x2="59.771%" y2="82.708%" id="C">
            <stop stop-color="#F4BDD7" offset="0%"/>
            <stop stop-color="#B46189" offset="100%"/>
        </linearGradient>
        <linearGradient x1="12.019%" y1="64.009%" x2="25.501%" y2="48.404%" id="D">
            <stop stop-color="#F8B845" offset="0%"/>
            <stop stop-color="#EB9440" offset="100%"/>
        </linearGradient>
        <linearGradient x1="12.019%" y1="83.384%" x2="25.501%" y2="46.197%" id="E">
            <stop stop-color="#F8B845" offset="0%"/>
            <stop stop-color="#EB9440" offset="100%"/>
        </linearGradient>
        <linearGradient x1="50%" y1="0%" x2="50%" y2="100%" id="F">
            <stop stop-color="#6A3C40" offset="0%"/>
            <stop stop-color="#6A3C40" offset="55.592%"/>
            <stop stop-color="#965452" offset="100%"/>
        </linearGradient>
        <linearGradient x1="50%" y1="0%" x2="50%" y2="100%" id="G">
            <stop stop-color="#6A3C40" offset="0%"/>
            <stop stop-color="#965452" offset="100%"/>
        </linearGradient>
        <linearGradient x1="50%" y1="0%" x2="50%" y2="100%" id="H">
            <stop stop-color="#6A3C40" offset="0%"/>
            <stop stop-color="#965452" offset="100%"/>
        </linearGradient>
        <linearGradient x1="50%" y1="0%" x2="50%" y2="100%" id="I">
            <stop stop-color="#D78B73" offset="0%"/>
            <stop stop-color="#E8A489" offset="100%"/>
        </linearGradient>
        <linearGradient x1="89.273%" y1="26.69%" x2="13.28%" y2="26.69%" id="J">
            <stop stop-color="#DF967D" offset="0%"/>
            <stop stop-color="#CF8369" offset="100%"/>
        </linearGradient>
        <linearGradient x1="100%" y1="50%" x2="0%" y2="50%" id="K">
            <stop stop-color="#237373" offset="0%"/>
            <stop stop-color="#1A5E63" offset="100%"/>
        </linearGradient>
        <linearGradient x1="50%" y1="0%" x2="50%" y2="100%" id="L">
            <stop stop-color="#6A3C40" offset="0%"/>
            <stop stop-color="#370B0F" offset="100%"/>
        </linearGradient>
        <linearGradient x1="50%" y1="0%" x2="50%" y2="100%" id="M">
            <stop stop-color="#6A3C40" offset="0%"/>
            <stop stop-color="#370B0F" offset="100%"/>
        </linearGradient>
        <linearGradient x1="50%" y1="0%" x2="50%" y2="100%" id="N">
            <stop stop-color="#D78B73" offset="0%"/>
            <stop stop-color="#E8A489" offset="100%"/>
        </linearGradient>
        <linearGradient x1="41.615%" y1="81.385%" x2="50%" y2="105.902%" id="O">
            <stop stop-color="#6A3C40" offset="0%"/>
            <stop stop-color="#965452" offset="100%"/>
        </linearGradient>
        <circle id="a" cx="100" cy="100" r="100"/>
    </defs>
    <g fill="none" fill-rule="evenodd">
        <mask id="c" fill="#fff">
            <use xlink:href="#a"/>
        </mask>
        <use fill="url(#b)" xlink:href="#a"/>
        <g fill-rule="nonzero" mask="url(#c)">
            <g opacity=".2">
                <g style="mix-blend-mode:luminosity">
                    <path d="M169.914 15.858c-38.87-21.144-101.892-21.144-140.762 0-38.87 21.143-38.87 55.424 0 76.568 38.871 21.143 101.892 21.144 140.762 0 38.87-21.144 38.87-55.424 0-76.568z" fill="url(#d)" transform="matrix(1 0 0 -1 -.336 207.75)"/>
                    <path fill="url(#e)" d="m31.371 56.718 21.785 12.577-21.784 12.577L9.587 69.295l21.784-12.577" transform="matrix(1 0 0 -1 -.336 207.75)"/>
                    <path fill="#E2B396" d="M31.036 149.098v-60.39L12.097 77.774v60.39l18.939 10.934"/>
                    <path fill="#AD856C" d="m31.036 88.708 18.938-10.934v60.39l-18.938 10.934v-60.39M13.991 81.054l1.894 1.093v56.017l-1.894-1.093V81.054M18.41 83.605l1.893 1.094.001 56.017-1.894-1.094V83.605M22.828 86.157l1.894 1.093v56.018l-1.893-1.094V86.157M27.247 88.709l1.894 1.093v56.017l-1.894-1.094V88.71"/>
                    <path fill="#99755D" d="m48.08 81.054-1.893 1.093v56.017l1.893-1.093V81.054M43.662 83.605 41.768 84.7v56.017l1.894-1.094V83.605M39.243 86.157l-1.894 1.093v56.018l1.894-1.094V86.157M34.824 88.709l-1.894 1.093v56.017l1.894-1.094V88.71"/>
                    <path fill="url(#f)" d="M50.31 129.977 31.37 140.91l-18.938-10.934 18.938-10.934 18.939 10.934" transform="matrix(1 0 0 -1 -.336 207.75)"/>
                    <path fill="#E2B396" d="M31.036 86.521V55.84l-15.152-8.954v30.889l15.152 8.747"/>
                    <path fill="#AD856C" d="M31.036 86.521V55.84l15.151-8.954v30.89L31.036 86.52M17.778 50.268l1.894 1.093v26.413L17.78 76.68V50.268M22.513 53.002l1.894 1.093v26.412l-1.894-1.093V53.002M27.247 55.735l1.894 1.094v26.412l-1.894-1.093V55.735"/>
                    <path fill="#99755D" d="m44.293 50.268-1.894 1.093v26.413l1.894-1.093V50.268M39.559 53.002l-1.894 1.093v26.412l1.894-1.093V53.002M34.824 55.735 32.93 56.83v26.412l1.894-1.093V55.735"/>
                    <path fill="url(#g)" d="M46.523 160.866 31.37 169.51l-15.151-8.644 15.151-8.954 15.152 8.954" transform="matrix(1 0 0 -1 -.336 207.75)"/>
                    <path fill="#AD856C" d="M31.035 52.455v-6.56l9.47-5.468v6.561l-9.47 5.467"/>
                    <path fill="#E2B396" d="M21.566 46.988v-6.56l9.469 5.466v6.561l-9.469-5.467"/>
                    <path fill="url(#h)" d="m40.84 167.323-9.47 5.468-9.468-5.468 9.469-5.467 9.47 5.467" transform="matrix(1 0 0 -1 -.336 207.75)"/>
                    <path d="M35.174 127.357a22.5 22.5 0 0 1 0 0m4.069-2.925a32.11 32.11 0 0 1 0 0m4.419-4.738a50.253 50.253 0 0 1 0 0m4.418-6.639a78.954 78.954 0 0 1 0 0" fill="#FEFEFE"/>
                    <path d="M46.186 116.154a63.88 63.88 0 0 1 0 0M41.768 121.94a39.94 39.94 0 0 1 0 0M37.349 125.953a26.296 26.296 0 0 1 0 0" fill="#F3F2F1"/>
                </g>
                <g style="mix-blend-mode:luminosity">
                    <path fill="#E7E8E5" d="m101.458 115.58 6.702 3.87-1.676.968 15.082 8.707 1.675-.967 6.703 3.87 12.892-7.46-28.511-16.462-12.867 7.475M72.94 128.157l21.788-12.578-18.384-10.64-21.836 12.577 18.433 10.641M143.321 138.454l23.46 13.544 23.46-13.544-23.46-13.544-23.46 13.544"/>
                    <path fill="#AD856C" d="M91.324 115.615 72.95 126.223V59.812l18.374-10.608v66.41"/>
                    <path fill="#99755D" d="m89.282 114.436-2.041 1.179V53.918l2.042-1.178v61.696M85.2 116.751l-2.042 1.178V56.276l2.042-1.179v61.654M81.117 119.108l-2.042 1.179V58.633l2.042-1.179v61.654M77.034 121.508l-2.042 1.179V60.99l2.042-1.178v61.696"/>
                    <path fill="#E2B396" d="m58.661 117.972 14.29 8.25v-66.41l-14.29-8.25v66.41"/>
                    <path fill="#AD856C" d="m60.702 116.794 2.042 1.178V56.276L60.7 55.097v61.697M64.785 119.15l2.04 1.18V58.632l-2.04-1.179v61.697M68.867 121.508l2.042 1.179V60.99l-2.042-1.178v61.696"/>
                    <path fill="#26B6A6" d="m58.66 51.561 18.374-10.607 14.29 8.25-18.373 10.608-14.29-8.25"/>
                    <path fill="url(#i)" d="m4.153 100.437 18.373 10.608 14.29-8.25-18.373-10.608-14.29 8.25" transform="matrix(1 0 0 -1 54.508 151.998)"/>
                    <path fill="url(#j)" d="m18.443 101.616 12.248 7.071-8.165 4.715-12.25-7.072 8.167-4.714" transform="matrix(1 0 0 -1 54.508 151.998)"/>
                    <path fill="#AD856C" d="M72.951 56.276v-5.893L85.2 43.31v5.893L72.95 56.276"/>
                    <path fill="#E2B396" d="m64.784 51.561.001-5.893 8.166 4.715v5.893l-8.167-4.715M73.673 45.252c0 .106-.07.213-.211.294-.282.163-.74.163-1.021 0-.14-.08-.211-.188-.211-.294V33.75h1.442v11.502"/>
                    <path d="M19.086 118.057c-.31-.33-1.153-.297-1.357.1a.238.238 0 0 0 0 .183c.204.397 1.046.43 1.357.1a.268.268 0 0 0 0-.383" fill="url(#k)" transform="matrix(1 0 0 -1 54.508 151.998)"/>
                    <path fill="#E2B396" d="m145.943 138.033 20.838 12.03v-62.18L145.943 75.85v62.182"/>
                    <path fill="#AD856C" d="m166.78 150.064 20.839-12.031V75.85L166.78 87.882v62.182"/>
                    <path fill="url(#l)" d="m133.111 76.147-20.839 12.031-20.837-12.03 20.838-12.032 20.838 12.031" transform="matrix(1 0 0 -1 54.508 151.998)"/>
                    <path fill="#AD856C" d="M166.78 85.476v-19.25l16.67-9.624v19.193l-16.67 9.681"/>
                    <path fill="#E2B396" d="M150.11 75.851v-19.25l16.67 9.626v19.25l-16.67-9.626"/>
                    <path fill="url(#m)" d="m128.943 95.397-16.67 9.624-16.67-9.624 16.67-9.625 16.67 9.625" transform="matrix(1 0 0 -1 54.508 151.998)"/>
                    <path fill="#E2B396" d="m166.78 63.82-12.502-7.218V42.165l12.502 7.219V63.82"/>
                    <path fill="#AD856C" d="m166.78 63.82 12.503-7.218V42.165l-12.503 7.219V63.82"/>
                    <path fill="url(#n)" d="m124.776 109.833-12.504 7.219-12.502-7.219 12.502-7.218 12.504 7.218" transform="matrix(1 0 0 -1 54.508 151.998)"/>
                    <path fill="#AD856C" d="m164.697 145.853-2.084-1.203V87.882l2.084 1.203v56.768M161.05 143.747l-2.083-1.202V85.777l2.083 1.203v56.767M157.404 141.642l-2.084-1.203V83.671l2.084 1.204v56.767M153.757 139.537l-2.084-1.203V81.566l2.084 1.203v56.768M150.111 137.431l-2.085-1.203V79.46l2.085 1.203v56.767"/>
                    <path fill="#99755D" d="m168.865 145.853 2.084-1.203V87.882l-2.084 1.203v56.768M172.512 143.747l2.084-1.202V85.777l-2.084 1.203v56.767M176.159 141.642l2.084-1.203V83.671l-2.084 1.204v56.767M179.806 139.537l2.083-1.203V81.566l-2.083 1.203v56.768M183.452 137.431l2.084-1.203V79.46l-2.084 1.203v56.767M168.604 82.017l2.084-1.203V66.377l-2.084 1.203v14.437M172.25 79.912l2.084-1.203V64.27l-2.084 1.203v14.438M175.897 77.806l2.084-1.203V62.166l-2.084 1.203v14.437M179.544 75.7l2.083-1.202V60.06l-2.083 1.204V75.7"/>
                    <path fill="#AD856C" d="m164.957 82.017-2.084-1.203V66.377l2.084 1.203v14.437M161.31 79.912l-2.083-1.203V64.27l2.084 1.203v14.438M157.664 77.806l-2.084-1.203V62.166l2.083 1.203v14.437M154.017 75.7l-2.084-1.202V60.06l2.084 1.204V75.7"/>
                    <path fill="#99755D" d="m168.344 60.511 2.083-1.202v-9.625l-2.083 1.203v9.624M171.99 58.406l2.084-1.203V47.58l-2.084 1.203v9.624M175.637 56.301l2.084-1.203v-9.624l-2.084 1.203V56.3"/>
                    <path fill="#AD856C" d="m165.217 60.511-2.083-1.202v-9.625l2.083 1.203v9.624M161.571 58.406l-2.084-1.203V47.58l2.084 1.203v9.624M157.924 56.301l-2.084-1.203v-9.624l2.084 1.203V56.3"/>
                    <path fill="#E2B396" d="m110.42 118.82-5.857-3.38V45.63l5.858 3.38v69.81"/>
                    <path fill="url(#o)" d="m50.055 106.369 9.762 5.636 5.858-3.381-9.762-5.636-5.858 3.381" transform="matrix(1 0 0 -1 54.508 151.998)"/>
                    <path fill="#E2B396" d="m129.944 130.093-5.857-3.382v-69.81l5.857 3.382v69.81M122.134 127.843l-13.666-7.895V41.12l13.667 7.89v78.833"/>
                    <path fill="#AD856C" d="m129.944 130.093 9.762-5.637v-69.81l-9.762 5.637v69.81"/>
                    <path fill="#99755D" d="M131.896 126.711v-65.3l1.953-1.128v65.3l-1.953 1.128"/>
                    <path fill="#AD856C" d="M127.992 126.711v-65.3l-1.953-1.128v65.3l1.953 1.128"/>
                    <path fill="#FAFAF9" d="M107.69 114.923V49.62l-1.953-1.127v65.302l1.952 1.127"/>
                    <path fill="#AD856C" d="M107.69 114.923V49.62l-1.953-1.127v65.302l1.952 1.127"/>
                    <path fill="#99755D" d="m135.8 124.456.001-65.301 1.952-1.127v65.302l-1.952 1.126"/>
                    <path fill="url(#o)" d="m69.579 95.097 9.762 5.636 5.857-3.381-9.761-5.636-5.858 3.381" transform="matrix(1 0 0 -1 54.508 151.998)"/>
                    <path fill="#AD856C" d="m124.087 126.711-1.953 1.127V49.011l11.715-6.763v9.017l-9.762 5.636v69.81"/>
                    <path fill="url(#p)" d="m53.961 110.878 11.714 6.763 13.666-7.89-11.714-6.763-13.666 7.89" transform="matrix(1 0 0 -1 54.508 151.998)"/>
                    <path fill="#AD856C" d="M120.182 124.487V50.92l-1.952-1.128v73.567l1.952 1.127M116.278 122.232V48.666l-1.953-1.127v73.566l1.953 1.127M112.374 119.978V46.412l-1.953-1.128v73.566l1.953 1.128"/>
                </g>
            </g>
            <path d="M83.641 40.026c7.644-4.548 7.644-11.921 0-16.469-7.644-4.548-20.038-4.548-27.682 0-7.644 4.548-7.644 11.921 0 16.469 7.645 4.548 20.038 4.548 27.682 0" fill="url(#q)" transform="matrix(1 0 0 -1 -.38 207.75)"/>
            <path d="M133.326 185.015c3.497 2.018 3.497 5.292 0 7.31-3.497 2.02-9.167 2.02-12.664 0-3.497-2.018-3.497-5.292 0-7.31 3.498-2.02 9.167-2.02 12.664 0" fill-opacity=".3" fill="#D8E0ED"/>
            <path d="M121.79 70.23c0 3.77 1.363 12.995 11.81 17.181 8.088 3.24 15.569-.868 17.342-2.577 2.213-2.132 4.643-6.73 1.244-10.388-1.93-2.075-4.125-1.553-6.514-1.03-2.282.498-4.74.997-7.31-.766-6.077-4.167-16.573-2.42-16.573-2.42" fill="#17282F"/>
            <path d="M134.128 126.236c.36.08.345.345.947.476 6.24 1.36 10.351-4.552 14.71-9.512 4.223-4.804 20.584-16.937 28.352-15.265-.376-5.457-7.246-11.164-15.593-10.258 0 0-1.582-3.747-9.379-5.638-6.372-1.546-13.254 2.957-20.377 7.645-9.308 6.125-13.009 14.855-12.026 22.556.654 5.12 4.18 7.558 7.848 9.3 3.357 1.594 5.518.696 5.518.696" fill="url(#r)" transform="matrix(1 0 0 -1 -.38 207.75)"/>
            <path d="M160.74 117.877c-12.313-4.5-16.579-12.72-16.579-12.72s9.976 9.034 18.003 10.917c-.003.008-.336.783-1.424 1.803" fill="#D38031"/>
            <path d="M166.781 103.135a53.063 53.063 0 0 0 0 0m-4.168-2.303a70.76 70.76 0 0 0 0 0m-3.646-2.355a79.653 79.653 0 0 0 0 0m-3.647-2.656" fill="#FEFEFE"/>
            <path d="M176.159 105.973a11.202 11.202 0 0 0 0 0m-3.647-.562a23.636 23.636 0 0 0 0 0m-3.647-1.307a42.759 42.759 0 0 0 0 0" fill="#F7F7F6"/>
            <path d="M164.697 102.04a64.107 64.107 0 0 0 0 0M161.05 99.86a76.505 76.505 0 0 0 0 0M157.404 97.377a79.582 79.582 0 0 0 0 0" fill="#F3F2F1"/>
            <path d="M170.95 104.92a31.914 31.914 0 0 0 0 0M174.596 105.854a16.798 16.798 0 0 0 0 0M176.212 105.945h-.035.035m-.038.028" fill="#EDEDEB"/>
            <path d="m154.957 95.489-.056-.044.056.044m-.025-.02-.055-.043.055.043m-.043-.033-.084-.066.084.066" fill="#FEFEFE"/>
            <path d="m149.755 90.878-.012-.014.012.014M149.52 90.621l-.013-.015c.005.006.01.01.013.015m-.018-.021-.026-.03.026.03M149.406 90.55" fill="#F3F2F1"/>
            <path d="M174.008 106.688c-7.642 0-19.64-7.739-24.26-13.564-4.48-5.648-9.845-11.466-12.363-12.23 4.381.504 7.7 4.63 11.06 8.549.32.372.64.742.96 1.108l.047.052.003.004.011.012.016.018.007.007.04.045.003.004.03.032a17.31 17.31 0 0 0 .095.105l.061.066.006.006c1.127 1.21 2.902 2.801 5.051 4.494a.892.892 0 0 0 .026.02l.037.03.022.016.003.003.001.001.024.02.026.019c.133.105.27.21.406.316a79.835 79.835 0 0 0 7.293 5.01c.69.418 1.387.822 2.084 1.208.695.385 1.391.752 2.084 1.096.7.348 1.397.673 2.084.969.706.304 1.402.578 2.084.816.53.186 1.053.35 1.563.49.72.199 1.417.348 2.084.444.542.077 1.064.118 1.563.119h.015c.56 0 1.088-.05 1.583-.157-1.047.602-2.322.872-3.75.872" fill="#FCBC7E"/>
            <path d="M134.746 126.26c2.538.002 4.185-.804 5.065-2.075 1.903-2.746 8.25-11.962 8.666-13.268.415-1.306-8.33-11.05-8.33-11.05l-2.664 2.642 5.084 7.832-7.482 8.146-.34 7.773" fill="url(#s)" transform="matrix(1 0 0 -1 -.38 207.75)"/>
            <path d="M140.148 103.014c3.957-4.67 10.987-12.189 13.017-16.975.781-1.841-17.792-21.633-17.792-21.633-.772.147-1.666 2.069-1.6 3.885 5.644 2.854 7.843 9.592 12.861 11.434-3.081 2.619-7.64 6.834-13.846 12.373l7.36 10.916" fill="url(#t)" transform="matrix(1 0 0 -1 -.38 207.75)"/>
            <path d="m145.044 126.982-8.275-10.821c3.967-4.345 3-11.425 3-11.425l-7.361 10.916c5.44 4.855 9.614 8.693 12.636 11.33" fill="#17282F" opacity=".1"/>
            <path d="M153.165 86.039c-.968-.627-3.652-2.25-7.74-5.27-3.867-2.857-9.473-10.857-15.568-15.069 0 0 .186-2.307 2.457-3.445 0 0 17.766 11.218 22.328 15.102 2.014 1.715-1.477 8.682-1.477 8.682" fill="url(#u)" transform="matrix(1 0 0 -1 -.38 207.75)"/>
            <path d="M138.519 73.789c-.33.724-1.316-.816-2.636-2.122-2.132-2.108-4.116-4.388-6.175-5.642-1.363-.83-1.738-.644-2.59-1.725-1.227-1.555.517-3.088 1.91-5.259.982-1.527 1.217-4.51 1.98-5.823.763-1.314 2.573-2.856 4.062-2.058.69.37-1.35 7.735-1.037 9.86.313 2.126.766 2.67 2.63 3.817 2.94 1.81 7.011 3.534 6.325 4.316 0 0-1.803-.22-3.104 1.201-2.119 2.315-1.365 3.435-1.365 3.435" fill="url(#v)" transform="matrix(1 0 0 -1 -.38 207.75)"/>
            <path d="M131.925 78.707h-1.658a8.477 8.477 0 0 1-8.478-8.477 9.041 9.041 0 0 1 9.041-9.042h.531c6.16 0 9.65 4.048 9.65 9.042 0 4.681-4.404 8.477-9.086 8.477" fill="#17282F"/>
            <path d="M122.988 63.576c.66.131 1.088.773.957 1.432l-2.388-.476a1.217 1.217 0 0 1 1.431-.956" fill="#17282F"/>
            <path d="M124.548 63.057a1.218 1.218 0 0 1-.783 1.534l-.75-2.317a1.217 1.217 0 0 1 1.533.783" fill="#17282F"/>
            <path d="M122.563 101.46c-3.243-7.085 1.335-27.385 1.335-27.385-.097-1.15-1.785-3.389-1.902-8.471-.11-4.806 1.737-14.786 2.295-21.875 0 0 1.937-1.267 4.228-.169 0 0 2.6 23.494 3.35 29.438.655 5.188 2.41 17.773 2.41 17.773l5.869 12.243-17.585-1.555" fill="url(#w)" transform="matrix(1 0 0 -1 -.38 207.75)"/>
            <path d="M122.951 55.077c-.508-.31-.217-.8 0-2.84.217-2.042 1.156-6.558 1.34-8.508.183-1.952-1.26-6.952-1.27-8.258-.008-1.306 2.35-5.158 4.021-5.16 1.073 0 2.524 2.439 2.605 3.437.217 2.68-1.34 7.907-1.128 9.812.211 1.905 1.171 7.66 1.335 8.676.322 2.006.501 2.84-.05 2.84 0 0-.634-1.107-3.38-1.252-2.748-.145-3.473 1.253-3.473 1.253" fill="url(#x)" transform="matrix(1 0 0 -1 -.38 207.75)"/>
            <path d="M139.539 113.508c2.448 2.62 2.612 4.507 1.564 6.43-2.179 3.996-5.702 6.203-6.357 6.322l-5.268-.097-4.379-.205c-.596-.19-2.203-1.696-2.834-4.005-.488-1.784-.272-3.984.333-5.732l3.623-8.384c-.51-2.943-4.45-5.521-4.45-9.093 10.577-.275 12.507-7.973 12.507-7.973 6.359 4.232 5.86 11.725 5.86 11.725.278 3.509-.776 7.79-.6 11.012" fill="url(#y)" transform="matrix(1 0 0 -1 -.38 207.75)"/>
            <path d="M128.472 100.027c-.796-.792-2.412-1.946-4.319-7.503-.404-1.18.198-3.902.814-5.395l-3.17-.927c-.358 1.705-.14 3.708.42 5.328l3.624 8.383c-.506 2.916-4.37 5.475-4.443 8.995l.053.102c2.9.083 5.145.726 6.877 1.613.03-.283-.056-.557-.429-.697-.95-.357-2.69-1.332-2.69-1.332.944-.015 1.04-1.152 1.04-1.152l-1.252-.114s-.256-2.86 1.063-4.232c1.319-1.372 2.71-2.772 2.412-3.07" fill="#273E47" opacity=".1"/>
            <path d="M137.725 142.799c.983-.581 2.198-3.054 2.078-8.237-.102-4.392-1.526-5.478-2.24-5.79-.715-.313-2.095-.123-3.435.1v-2.636c.05.068 2.728-2.283 2.452-3.707-.23-1.193-3.39-1.148-5.124.033-1.734 1.18-2.846 2.978-2.846 2.978v5.84s-1.144-.498-2.385.307c-1.49.968-1.536 3.416-.676 4.29.86.873 2.715.597 3.061-.61 0 0 2.138-.078 4.985 1.486 2.847 1.564 3.94 4.242 4.13 5.946" fill="url(#z)" transform="matrix(1 0 0 -1 -.38 207.75)"/>
            <path d="m136.564 136.381.088-3.325c1.183-.275 1.767-.094 1.75.542-.017.637-.63 1.565-1.838 2.783z" fill="url(#A)" transform="matrix(1 0 0 -1 -.38 207.75)"/>
            <path d="m134.666 75.809 1.283.409a.662.662 0 0 1-.834.46.706.706 0 0 1-.449-.87" fill="#AA3B4B"/>
            <path d="m139.427 69.676-1.345-.2a.653.653 0 0 1 .748-.582.714.714 0 0 1 .597.782" fill="#17282F"/>
            <path d="M128.61 135.367c-.194.562-.605.917-1.236 1.063 1.542.84 3.762 1.336 5.024 1.373 2.77.081 3.186-.831 4.383-.806 1.196.026 1.558.798 2.894.887 0 0 .562-1.51.136-3.516 0 0-1.098-.492-2.401.732l-.313.475s-.315-.095-.961-.749c-.361-.365-1.762-1.228-3.656-.97-2.49.342-3.87 1.511-3.87 1.511" fill="url(#B)" transform="matrix(1 0 0 -1 -.38 207.75)"/>
            <path d="M132.653 71.817s.517-.794 1.368-.558c.76.21.823.819.823.819s-.449.642-1.289.504c-.723-.118-.902-.765-.902-.765M137.572 72.077s.069-.47.45-.696c.345-.206.872-.166 1.175.09 0 0 .073.737-.617.927-.632.175-1.008-.321-1.008-.321" fill="#F3F2F1"/>
            <path d="M133.748 78.878c-1.412-.185-4.319-1.02-4.771-2.169 0 0 .15.722 1.018 1.467.869.743 3.753 1.582 3.753 1.582v-.88" fill="#AC6955"/>
            <path d="m116.452 109.54 6.146 6.68s.795.814 1.977 2.645c1.383 2.141 1.443 5.835.524 7.093-2.388 0-3.903-.491-6.929-4.657-2.558-3.52-5.671-7.81-6.488-9.19-1.004-1.699-1.298-2.163-.421-3.84.876-1.678 4.156-5.985 6.921-9.224 2.766-3.239 4.383-4.334 6.451-4.814 2.069-.48 2.99-.073 4.156.996 1.166 1.07.341 2.026-.74 2.276-1.083.25-2.244.714-2.897 1.186-.66.477-.869.849-.252.875.789.033 1.526.191 1.729.743.253.688-.397.503-1.301.78-.903.276-2.909.72-3.58.686-1.475-.073-5.296 7.765-5.296 7.765" fill="url(#C)" transform="matrix(1 0 0 -1 -.38 207.75)"/>
            <path d="M123.584 81.85c1.135-.057 3.191 2.506 4.202 2.895 1.011.39 2.134-1.178.445-3.116 0 0-2.26-.68-4.647.222" fill="#26B6A6"/>
            <path d="M128.481 122.946c-.104 0-.21.02-.315.06-.644.247-1.71 1.375-2.694 2.148-.544.428-1.063.747-1.47.747h-.038c.952.359 1.883.467 2.66.467 1.17 0 1.986-.246 1.986-.246.63-.723.87-1.394.869-1.931 0-.754-.473-1.245-.998-1.245" fill="url(#D)" transform="matrix(1 0 0 -1 -.38 207.75)"/>
            <path d="M133.748 81.515s.777-.977 2.488-.132c0 0 .587.707.81 1.443.348 1.152.152 1.54-.376 1.54-.776 0-1.115-.817-1.744-1.563-.547-.65-.83-.99-1.178-1.288" fill="#26B6A6"/>
            <path d="M137.05 123.386c-.279 0-.5.105-.7.273-.356.303-.64.81-1.044 1.289-.547.65-.83.99-1.178 1.288 0 0 .378.476 1.189.476.35 0 .782-.089 1.3-.344 0 0 .586-.707.808-1.443.12-.396.176-.702.175-.933 0-.44-.203-.606-.55-.606" fill="url(#E)" transform="matrix(1 0 0 -1 -.38 207.75)"/>
            <path d="M69.874 83.792s-1.425-1.037-5.185-.334c-3.76.703-8.214 3.596-11.973 12.243-3.759 8.647-9.388 19.05-17.542 23.656-4.982 2.813-11.47 3.31-17.273 2.725 0 0-.472 7.185 5.023 12.879 6.951 7.203 15.174 6.264 15.174 6.264s3.188 4 9.453 5.253c6.265 1.252 11.195-.238 11.195-.238s5.038 1.125 8.759.238c7.408-1.769 9.498-6.799 9.396-6.923-.1-.125 3.52-54.932 3.52-54.932l-10.547-.831" fill="#A0C5E1"/>
            <path d="M40.868 143.655c-1.835-1.267-2.77-2.43-2.77-2.43 7.882-1.454 19.367-13.732 22.211-21.789 0 0-5.27 19.01-19.441 24.22" fill="#8DB2CD"/>
            <path d="M70.743 153.377a14.53 14.53 0 0 1 0 0" fill="#DBDCD9"/>
            <path d="M62.626 146.766a28.414 28.414 0 0 1-3.88-.526s1.468-.577 3.555-2.89c.093.874.204 2.054.325 3.416m8.117-1.39c-.065-1.716-.107-3.14-.107-3.14l1.51-19.568s.959 15.004 1.598 20.887a14.53 14.53 0 0 1-3 1.822" fill="#8DB2CD"/>
            <path d="M51.68 106.02c.36-.783.705-1.558 1.036-2.32 1.867-4.294 3.905-7.17 5.945-9.061-2.04 1.892-4.078 4.767-5.945 9.062-.33.76-.676 1.536-1.036 2.319" fill="#FFF"/>
            <path d="M49.975 109.547a99.258 99.258 0 0 1 0 0" fill="#FEFEFE"/>
            <path d="M58.66 94.639a14.202 14.202 0 0 0 0 0m4.083-2.624" fill="#F7F7F6"/>
            <path d="M60.701 93.054a11.764 11.764 0 0 0 0 0" fill="#EDEDEB"/>
            <path d="m64.69 91.441.1-.039-.1.04m2.73-.247a3.871 3.871 0 0 0-.594-.003 4.672 4.672 0 0 1 .595.002" fill="#F7F7F6"/>
            <path d="M64.784 91.441a13.554 13.554 0 0 0 0 0" fill="#EDEDEB"/>
            <path d="M27.063 124.31c-5.593 0-9.162-2.228-9.162-2.228a42.23 42.23 0 0 0 4.232.218c4.575 0 9.245-.8 13.04-2.943a22.5 22.5 0 0 0 2.176-1.404c.649-.472 1.28-.98 1.894-1.52a32.11 32.11 0 0 0 2.525-2.493 39.94 39.94 0 0 0 1.894-2.246 50.253 50.253 0 0 0 2.524-3.54 63.88 63.88 0 0 0 1.894-3.099 78.954 78.954 0 0 0 1.895-3.508 99.258 99.258 0 0 0 1.705-3.527c.36-.783.705-1.558 1.036-2.32 1.867-4.294 3.905-7.169 5.945-9.061a14.202 14.202 0 0 1 2.04-1.585c.69-.438 1.373-.779 2.042-1.04a10.904 10.904 0 0 1 1.946-.556l.095-.017a13.554 13.554 0 0 1 2.327-.227c.107 0 .21.002.31.005-.314.075-.66.199-1.037.385 0 0-.13.157-.306.41-.392.113-.782.252-1.166.414-1.613.518-2.654 1.318-3.344 2.05-3.209 2.597-5.757 6.545-6.868 9.877-1.973 5.92-7.07 20.714-17.92 25.727-3.617 1.671-6.92 2.228-9.717 2.228" fill="#C2E2F8"/>
            <path d="M69.406 123.883c-5.321.04-7.336-2.284-8.218-3.555-1.903-2.746-6.98-13.593-7.396-14.899-.416-1.305 9.945-12.707 9.945-12.707l2.665 2.642-5.713 10.337 6.099 9.06 2.618 9.122" fill="url(#F)" transform="matrix(1 0 0 -1 -.38 207.75)"/>
            <path d="M82.598 97.004c-.03-1.777.64-4.944.748-8.69.281-9.834-.249-23.341-.249-23.341.095-1.113 1.137-3.163.912-7.435-.307-5.804-.808-20.654-.808-20.654s-1.899-1.881-4.578 0c0 0-3.666 20.634-4.39 26.384-.634 5.02-1.708 21.815-1.708 21.815l-1.509-19.568s.108-3.732.253-6.395c.145-2.663-2.376-16.455-2.376-16.455s-2.058-1.422-4.406-.168c0 0-1.562 20.883-1.98 23.289-.417 2.405 1.157 31.218 1.157 31.218h18.934" fill="url(#G)" transform="matrix(1 0 0 -1 -.38 207.75)"/>
            <path d="M76.504 123.775c.731-.001 3.61-.351 5.165-.647.63-.12.761-.313 1.352-.512 0 0 2.403-5.543 1.02-12.417-.958-4.76-1.449-10.398-1.419-15.789-2.316-3.02-14.101-4.053-19.111.024 0 0 .134 5.033-.23 10.413-.322 4.754-1.15 9.064-.844 11.268.697 5.031 2.98 7.563 7.816 7.844l6.251-.184" fill="url(#H)" transform="matrix(1 0 0 -1 -.38 207.75)"/>
            <path d="M72.145 130.668s-3.659-.473-9.17-6.018c5.511 5.545 9.17 6.018 9.17 6.018m0 0c3.676-6.553 8.978-6.968 10.263-6.968.186 0 .288.009.288.009s-.102-.01-.288-.01c-1.285 0-6.587.416-10.263 6.969" fill="#17272D"/>
            <path d="M72.145 122.668s-3.659-.473-9.17-6.018l.18-5.27s2.742 1.447 8.101 1.447c2.905 0 6.58-.425 11.004-1.737l.436 4.619s-.102-.01-.288-.01c-1.285 0-6.587.416-10.263 6.969" fill="#8DB2CD"/>
            <path d="M77.487 67.838s1.003-.171 1.785.628c.766.784.607 2.235-.002 5.57l-2.368.271.585-6.469M63.673 66.874s-.957 0-1.482-.301c-.728-.418-.917.408-.519 1.126.4.719 1.143 1.654 2.749 1.831.022-.103.68-1.85.68-1.85l-1.428-.806" fill="#370B0F"/>
            <path d="M78.043 134.361c.433.454 1.85 1.075 2.555-.414.72-1.517-.623-3.52-1.738-3.87-1.92-.604-2.21.629-2.21.629l-.146-6.93s-1.258-3.079-4.664-3.54c-3.407-.462-2.706 2.346-1.587 3.723l.006 2.109s-1.741-.265-2.59-.133c-1.413.218-2.302 1.333-2.73 2.862-.689 2.457-.95 4.44-.366 9.271.64 5.296 6.799 5.35 10.125 3.257 3.325-2.093 2.057-7.883 2.057-7.883.352-.21.854.466 1.288.92z" fill="url(#I)" transform="matrix(1 0 0 -1 -.38 207.75)"/>
            <path d="M76.375 74.9c.177.004.85-1.112 1.288-1.51.606-.553-.176-5.552-.176-5.552s.613-1.896-.585-3.153c-1.2-1.258-3.523-1.045-5.222-1.106-1.768-.064-3.66-.171-6.074-1.22-2.413-1.048-2.593-1.172-2.893-.112-.299 1.06-.412 3.487 1.028 5.113l1.198.44s.647.575 2.898.848c2.25.274 5.756-.052 6.235-.118.652-.089.792.544 1.144 2.272.308 1.516.565 4.087 1.16 4.099" fill="#370B0F"/>
            <path d="m77.483 68.227 2.127-1.142a1.172 1.172 0 0 0-1.61-.532c-.587.315-.818 1.065-.517 1.674" fill="#370B0F"/>
            <path d="M69.879 81.683s3.154-.635 4.256-1.222c.738-.392 1.346-1.072 1.525-1.508 0 0-.207.936-.866 1.78-.807 1.03-4.915 1.79-4.915 1.79v-.84" fill="#CF8369"/>
            <path d="m71.302 71 1.51.326a.81.81 0 0 0-.612-.94.753.753 0 0 0-.898.615" fill="#17282F"/>
            <path d="m70.165 77.886-1.443.542a.757.757 0 0 0 .98.478.807.807 0 0 0 .463-1.02" fill="#874C4C"/>
            <path d="m64.554 71.38 1.459-.543a.748.748 0 0 0-.976-.474.817.817 0 0 0-.483 1.018" fill="#17282F"/>
            <path d="m68.98 135.01-.207-3.801c-1.364-.289-2.025-.063-1.985.677.04.74.771 1.78 2.192 3.124z" fill="url(#J)" transform="matrix(1 0 0 -1 -.38 207.75)"/>
            <path d="M77.282 133.444c.305.39.572.708.99 1.107-1.542.841-4.217 1.418-5.478 1.455-2.77.082-3.186-.831-4.383-.806-1.197.026-1.819.811-2.93.746-.923-.054-1.159-.439-1.159-.439-.211-.497-.277-1.931-.072-2.398 0 0 .538-.441 1.13-.538.593-.097 1.644.065 2.402.732l.318.452s.309-.072.956-.726c.36-.365 1.761-1.228 3.655-.97 2.49.341 4.57 1.385 4.57 1.385" fill="url(#K)" transform="matrix(1 0 0 -1 -.38 207.75)"/>
            <path d="M72.611 73.47s-.552-.85-1.464-.598c-.812.225-.835.931-.835.931s.436.632 1.334.485c.774-.127.965-.818.965-.818M66.644 73.643s-.15-.738-.792-.882c-.392-.087-.901.12-1.163.419 0 0 .083.735.785.877.788.161 1.17-.414 1.17-.414" fill="#FFF"/>
            <path d="M75.32 23.13c-1.283.001-3.576.719-3.576 1.792 0 .085.015.172.046.26.443 1.3 2.292 2.666 3.568 3.83.583.531 1.146 1.345 1.646 2.173.069.124 1.214 2.196 1.373 3.436.008.07.012.157.012.26 0 1.778-1.275 8.208-1.586 9.869-.2 1.067-.376 1.72-.375 2.122 0 .3.099.46.357.546l.14-.81s.454-1.003 3.105-1.003c.064 0 .13 0 .197.002 2.826.052 3.326 1.118 3.326 1.118l.028.755c.357-.076.455-.236.454-.696 0-.339-.053-.84-.096-1.591-.056-.977-.277-3.845-.483-7.625a49.579 49.579 0 0 1-.086-2.653c0-1.127.072-1.754.173-2.276.052-.21.1-.425.14-.636.061-.327.101-.642.101-.9 0-.164-.016-.305-.053-.413-.266-.767-1.744-1.836-2.234-2.5-.49-.663-.772-1.997-1.375-2.902-.604-.905-3.006-1.88-4.392-2.126a2.366 2.366 0 0 0-.41-.032" fill="url(#L)" transform="matrix(1 0 0 -1 -.38 207.75)"/>
            <path d="M58.889 32.39c-1.417 0-2.531.31-3.105.691-.444.296-.67.706-.67 1.086 0 .357.2.687.603.869 1.334.6 4.28 1.768 5.797 2.527.311.156.624.337.923.53.691.835 1.739 1.518 1.74 3.615 0 .047 0 .094-.002.141-.047 2.208-.66 7.114-.749 7.865-.087.748-.152 1.262-.152 1.612 0 .48.122.656.476.708l.041-.519s.69-.792 3.386-.792c2.489 0 3.202.703 3.202.703l.094.608c.227-.06.308-.16.308-.373 0-.3-.162-.828-.308-1.79-.25-1.64-1.093-6.376-1.14-7.502a6.281 6.281 0 0 1-.005-.268c0-1.253.27-3.73.453-4.601.12-.54.267-1.125.267-1.643 0-.487-.13-.915-.53-1.191-.628-.433-1.986-.547-3.095-.547-.352 0-.68.012-.95.028-.03.002-.059.003-.09.003-1.123 0-2.836-1.2-4.161-1.495a10.7 10.7 0 0 0-2.333-.265" fill="url(#M)" transform="matrix(1 0 0 -1 -.38 207.75)"/>
            <path d="M72.145 130.668s-3.418-1.242-6.677-3.73c0 0 .84 2.12 5.406 4.624l.228 12.639 1.043-13.533" fill-opacity=".1" fill="#17282F"/>
            <path d="m89.219 105.126-5.122 7.494s-.67.92-1.577 2.901c-1.06 2.318-.59 5.982.501 7.095 2.363-.344 3.792-1.047 6.187-5.604 2.026-3.853 4.873-8.605 5.482-10.088.75-1.826.974-2.328-.135-3.862-1.108-1.534-5.355-6.512-8.557-9.32-3.203-2.807-4.96-3.659-7.077-3.836-2.116-.178-2.969.357-3.97 1.583-.999 1.226-.045 2.054 1.061 2.145 1.107.092 2.323.385 3.037.758.721.377.982.715.375.83-.776.145-1.483.408-1.604.984-.151.716.466.44 1.4.584.933.143 2.981.294 3.64.165 1.45-.284 6.359 8.17 6.359 8.17" fill="url(#N)" transform="matrix(1 0 0 -1 -.38 207.75)"/>
            <path d="M81.67 123.128c2.92-.401 3.842-.363 5.436-2.333 1.594-1.97 7.613-12.878 8.214-14.55.602-1.674.32-2.424-.852-3.83-1.172-1.408-7.484-7.982-7.484-7.982s-1.784.19-3.2 2.984l5.057 7.67s-5.774 6.449-6.805 8.735c-1.537 3.408-.367 9.306-.367 9.306" fill="url(#O)" transform="matrix(1 0 0 -1 -.38 207.75)"/>
            <path d="M76.321 88.404c-.736 0-1.398-.688-1.399-1.746 0-.754.335-1.695 1.218-2.71 0 0 .497-.066 1.308-.066 1.22 0 3.148.151 5.158.912l-.053-.002h-.01c-.395 0-.862.182-1.362.464-1.527.862-3.363 2.659-4.418 3.064a1.228 1.228 0 0 1-.442.084M65.777 87.787c-.487 0-.773-.233-.773-.85 0-.324.077-.753.245-1.309.312-1.031 1.135-2.024 1.135-2.024.725-.358 1.33-.483 1.822-.483 1.137 0 1.668.668 1.668.668l-.003.002c-.486.42-.883.896-1.65 1.806-.881 1.046-1.357 2.19-2.444 2.19" fill="#C2E2F8"/>
        </g>
    </g>
</svg>
