<svg width="150" height="33" xmlns="http://www.w3.org/2000/svg">
    <g fill="none" fill-rule="evenodd">
        <path d="M26.197 32.466H5.815c-3.03 0-5.488-2.518-5.488-5.623V5.956C.327 2.851 2.784.333 5.815.333h20.382c3.03 0 5.487 2.518 5.487 5.623v20.887c0 3.105-2.456 5.623-5.487 5.623" fill="#FEFEFE"/>
        <path d="M26.197 32.466H5.815c-3.03 0-5.488-2.518-5.488-5.623V5.956C.327 2.851 2.784.333 5.815.333h20.382c3.03 0 5.487 2.518 5.487 5.623v20.887c0 3.105-2.456 5.623-5.487 5.623z" stroke="#BABBC4" stroke-width=".605"/>
        <path d="M26.197 32.466H5.815c-3.03 0-5.488-2.518-5.488-5.623V5.956C.327 2.851 2.784.333 5.815.333h20.382c3.03 0 5.487 2.518 5.487 5.623v20.887c0 3.105-2.456 5.623-5.487 5.623" fill="#FEFEFE"/>
        <path d="M26.197 32.466H5.815c-3.03 0-5.488-2.518-5.488-5.623V5.956C.327 2.851 2.784.333 5.815.333h20.382c3.03 0 5.487 2.518 5.487 5.623v20.887c0 3.105-2.456 5.623-5.487 5.623z" stroke="#BABBC4" stroke-width=".605"/>
        <path fill="#0AD0F4" d="m6.045 27.97 9.821-5.32V4.766l-9.821 6.678z"/>
        <path fill="#161625" d="m25.687 27.97-9.821-5.32V4.766l9.82 6.678z"/>
        <g fill="#0AD0F4">
            <path d="M39.966 4.937h4.037v6.036h2.395v3.537h-2.395v12.84h-4.037V14.51h-2.07v-3.537h2.07zM57.206 18.04c-.061-1.511-1.03-2.99-3.33-2.99-2.092 0-3.242 1.603-3.332 2.99h6.662zm3.754 4.963c-.756 2.62-3.118 4.809-6.783 4.809-4.088 0-7.691-2.99-7.691-8.107 0-4.84 3.513-7.985 7.328-7.985 4.603 0 7.359 2.99 7.359 7.86 0 .587-.062 1.203-.062 1.265H50.453c.09 2.004 1.756 3.452 3.755 3.452 1.877 0 2.907-.956 3.39-2.311l3.362 1.017zM65.473 22.355c.09 1.203.97 2.312 2.725 2.312 1.332 0 1.968-.709 1.968-1.51 0-.678-.454-1.233-1.604-1.48l-1.969-.462c-2.877-.648-4.18-2.405-4.18-4.532 0-2.713 2.363-4.963 5.573-4.963 4.24 0 5.662 2.744 5.845 4.378l-3.362.77c-.121-.894-.757-2.034-2.452-2.034-1.06 0-1.909.647-1.909 1.51 0 .74.545 1.203 1.363 1.357l2.12.462c2.938.616 4.422 2.435 4.422 4.655 0 2.466-1.878 4.993-5.785 4.993-4.481 0-6.025-2.959-6.208-4.685l3.453-.77zM76.572 4.937h4.037v6.036h2.395v3.537H80.61v12.84h-4.037V14.51h-2.07v-3.537h2.07zM91.843 15.45c-2.028 0-3.725 1.51-3.725 4.285 0 2.744 1.697 4.316 3.725 4.316 2.06 0 3.695-1.541 3.695-4.316 0-2.774-1.635-4.285-3.695-4.285zm-7.631 11.9V5.03h3.968v8.816c.665-1.079 2.301-2.066 4.511-2.066 4.361 0 6.874 3.423 6.874 7.923 0 4.593-2.785 8.015-7.026 8.015-2.058 0-3.633-.924-4.421-2.22v1.85h-3.906zM112.163 19.766c0-2.867-1.817-4.316-3.785-4.316-1.968 0-3.786 1.45-3.786 4.316 0 2.836 1.818 4.316 3.786 4.316s3.785-1.45 3.785-4.316m4.028 0c0 4.654-3.362 8.046-7.813 8.046-4.452 0-7.813-3.392-7.813-8.046 0-4.686 3.36-8.046 7.813-8.046 4.451 0 7.813 3.36 7.813 8.046M128.788 19.766c0-2.867-1.817-4.316-3.785-4.316-1.968 0-3.785 1.45-3.785 4.316 0 2.836 1.817 4.316 3.785 4.316 1.968 0 3.785-1.45 3.785-4.316m4.028 0c0 4.654-3.361 8.046-7.813 8.046s-7.812-3.392-7.812-8.046c0-4.686 3.36-8.046 7.812-8.046s7.813 3.36 7.813 8.046M143.415 18.564l6.087 8.786h-4.937l-3.936-5.796-1.666 1.787v4.009h-4.027V5.03h4.027v12.794l5.149-5.642h5.268z"/>
        </g>
    </g>
</svg>
