<svg xmlns="http://www.w3.org/2000/svg" width="32" height="32" viewBox="0 0 32 32" fill="none">
    <path fill-rule="evenodd" clip-rule="evenodd" d="M8.75783 1.82582C8.8759 1.4725 9.25183 1.27539 9.60959 1.37923L10.0358 1.50293C10.4145 1.61284 10.6131 2.02028 10.6147 2.41457C10.6187 3.41448 11.3112 4.33983 12.3893 4.65298C13.4901 4.97269 14.6483 4.55464 15.251 3.6987C15.4655 3.39404 15.8338 3.18759 16.1916 3.29147L16.7835 3.46332C17.162 3.57321 17.3606 3.98044 17.3623 4.37459C17.3665 5.3746 18.059 6.30003 19.1373 6.61273C20.2381 6.93294 21.396 6.51451 21.9988 5.65867C22.2133 5.35414 22.5816 5.14791 22.9393 5.25181L23.5245 5.42181C23.903 5.53176 24.1015 5.93903 24.1033 6.33318C24.1076 7.33265 24.8001 8.25771 25.8782 8.57133C26.9786 8.89107 28.1369 8.47291 28.7398 7.61682C28.9543 7.31224 29.3226 7.10595 29.6803 7.20988L30.1134 7.33567C30.4919 7.44563 30.7029 7.84834 30.578 8.22218L23.242 30.1748C23.1239 30.5282 22.7479 30.7253 22.3901 30.6214L21.9574 30.4956C21.5788 30.3857 21.3803 29.9783 21.3787 29.5841C21.3745 28.5844 20.6817 27.6597 19.6035 27.3461C18.5027 27.0263 17.3447 27.4445 16.7419 28.3006C16.5274 28.6052 16.1592 28.8114 15.8014 28.7075L15.2162 28.5375C14.8377 28.4276 14.6392 28.0204 14.6375 27.6263C14.6333 26.6262 13.9408 25.7008 12.8626 25.3881C11.7617 25.0678 10.6038 25.4863 10.001 26.3421C9.78649 26.6467 9.41826 26.8529 9.06057 26.749L8.46885 26.5772C8.09036 26.4673 7.89181 26.06 7.89015 25.6659C7.88595 24.666 7.19345 23.7409 6.11519 23.4277C5.01436 23.1075 3.85637 23.526 3.25359 24.3822C3.03912 24.6868 2.6708 24.8931 2.31305 24.7891L1.8864 24.6651C1.50791 24.5552 1.29685 24.1525 1.42177 23.7786L8.75783 1.82582ZM9.48133 12.3602C10.6351 12.3602 11.2013 13.0001 11.2013 14.1748V15.1294C11.2013 16.3041 10.6351 16.944 9.48133 16.944H8.9355V19.7022H7.78171V12.3602H9.48133ZM9.48133 13.4089H8.9355V15.8947H9.48133C9.84831 15.8947 10.0475 15.7269 10.0475 15.2026V14.1016C10.0475 13.5767 9.84831 13.4089 9.48133 13.4089ZM14.5447 12.3602L15.7194 19.7022H14.5552L14.3555 18.3701H12.9398L12.7406 19.7022H11.6809L12.8556 12.3602H14.5447ZM13.5559 13.6609L13.0002 17.3737H14.1122L13.5559 13.6609ZM16.6485 14.1225C16.6485 12.9478 17.2251 12.276 18.3475 12.276C19.47 12.276 20.0466 12.9478 20.0466 14.1225V14.353H18.9555V14.0488C18.9555 13.5244 18.7465 13.3253 18.3789 13.3253C18.0119 13.3253 17.8023 13.5244 17.8023 14.0488C17.8023 15.5591 20.057 15.8425 20.057 17.9398C20.057 19.1145 19.47 19.7863 18.3371 19.7863C17.2042 19.7863 16.6172 19.1145 16.6172 17.9398V17.4892H17.7076V18.0136C17.7076 18.5379 17.9382 18.7266 18.3057 18.7266C18.6727 18.7266 18.9038 18.5379 18.9038 18.0136C18.9038 16.5032 16.6485 16.2199 16.6485 14.1225ZM20.9669 14.1225C20.9669 12.9478 21.5441 12.276 22.666 12.276C23.7884 12.276 24.365 12.9478 24.365 14.1225V14.353H23.2745V14.0488C23.2745 13.5244 23.0649 13.3253 22.6979 13.3253C22.3303 13.3253 22.1207 13.5244 22.1207 14.0488C22.1207 15.5591 24.3755 15.8425 24.3755 17.9398C24.3755 19.1145 23.7884 19.7863 22.6555 19.7863C21.5232 19.7863 20.9356 19.1145 20.9356 17.9398V17.4892H22.0267V18.0136C22.0267 18.5379 22.2572 18.7266 22.6247 18.7266C22.9911 18.7266 23.2223 18.5379 23.2223 18.0136C23.2223 16.5032 20.9669 16.2199 20.9669 14.1225Z" fill="#4788F4"/>
    <path fill-rule="evenodd" clip-rule="evenodd" d="M18.3476 12.2764C17.2251 12.2764 16.6485 12.9482 16.6485 14.1229C16.6485 15.2575 17.3085 15.8612 17.9144 16.4155C18.4286 16.8859 18.9039 17.3206 18.9039 18.0139C18.9039 18.5383 18.6727 18.727 18.3058 18.727C17.9382 18.727 17.7077 18.5383 17.7077 18.0139V17.4896H16.6172V17.9402C16.6172 19.1149 17.2042 19.7867 18.3371 19.7867C19.47 19.7867 20.0571 19.1149 20.0571 17.9402C20.0571 16.8056 19.3973 16.2019 18.7915 15.6476C18.2775 15.1772 17.8023 14.7425 17.8023 14.0491C17.8023 13.5248 18.0119 13.3256 18.3789 13.3256C18.7465 13.3256 18.9555 13.5248 18.9555 14.0491V14.3534H20.0466V14.1229C20.0466 12.9482 19.47 12.2764 18.3476 12.2764ZM9.48135 12.3606C10.6351 12.3606 11.2013 13.0005 11.2013 14.1752V15.1298C11.2013 16.3045 10.6351 16.9444 9.48135 16.9444H8.93553V19.7025H7.78174V12.3606H9.48135ZM14.5448 12.3606L15.7195 19.7025H14.5552L14.3555 18.3705H12.9398L12.7406 19.7025H11.6809L12.8556 12.3606H14.5448ZM20.967 14.1229C20.967 12.9482 21.5441 12.2764 22.666 12.2764C23.7884 12.2764 24.365 12.9482 24.365 14.1229V14.3534H23.2745V14.0491C23.2745 13.5248 23.0649 13.3256 22.6979 13.3256C22.3304 13.3256 22.1208 13.5248 22.1208 14.0491C22.1208 14.7425 22.5959 15.1772 23.1099 15.6476C23.7157 16.2019 24.3755 16.8056 24.3755 17.9402C24.3755 19.1149 23.7884 19.7867 22.6555 19.7867C21.5232 19.7867 20.9356 19.1149 20.9356 17.9402V17.4896H22.0267V18.0139C22.0267 18.5383 22.2572 18.727 22.6248 18.727C22.9912 18.727 23.2223 18.5383 23.2223 18.0139C23.2223 17.3206 22.747 16.8859 22.2329 16.4155C21.6269 15.8612 20.967 15.2575 20.967 14.1229ZM9.48122 13.4087H8.93539V15.8945H9.48122C9.8482 15.8945 10.0474 15.7267 10.0474 15.2024V14.1014C10.0474 13.5765 9.8482 13.4087 9.48122 13.4087ZM13.5558 13.6607L13.0001 17.3735H14.1121L13.5558 13.6607Z" fill="white"/>
</svg>
