<svg width="86" height="18" viewBox="0 0 86 18" fill="none" xmlns="http://www.w3.org/2000/svg">
<path fill-rule="evenodd" clip-rule="evenodd" d="M1.49421 3.49365H3.43277V6.39969H4.58293V8.10233H3.43277V14.2839H1.49421V8.10233H0.5V6.39969H1.49421V3.49365Z" fill="#161624"/>
<path fill-rule="evenodd" clip-rule="evenodd" d="M9.77269 9.80195C9.7434 9.07464 9.27822 8.3624 8.17318 8.3624C7.16921 8.3624 6.61695 9.13415 6.57342 9.80195H9.77269ZM11.5762 12.1914C11.2128 13.4529 10.0785 14.5064 8.3186 14.5064C6.35576 14.5064 4.62512 13.0668 4.62512 10.6035C4.62512 8.2734 6.31223 6.75952 8.14419 6.75952C10.355 6.75952 11.6783 8.19908 11.6783 10.5437C11.6783 10.8259 11.6487 11.1226 11.6487 11.1522H6.53017C6.57397 12.1171 7.37372 12.8145 8.33337 12.8145C9.23497 12.8145 9.72971 12.3543 9.9619 11.7016L11.5762 12.1914Z" fill="#161624"/>
<path fill-rule="evenodd" clip-rule="evenodd" d="M13.743 11.8796C13.7868 12.4585 14.2087 12.9927 15.052 12.9927C15.6916 12.9927 15.9969 12.6513 15.9969 12.2654C15.9969 11.9391 15.7789 11.6719 15.2267 11.5532L14.2813 11.3305C12.8995 11.0187 12.2741 10.1729 12.2741 9.14882C12.2741 7.84282 13.4087 6.75952 14.9502 6.75952C16.9861 6.75952 17.6692 8.08033 17.7568 8.86688L16.1425 9.23795C16.0842 8.80737 15.7789 8.25832 14.9649 8.25832C14.4557 8.25832 14.0483 8.57014 14.0483 8.98564C14.0483 9.34189 14.3101 9.56458 14.7027 9.63863L15.7206 9.86132C17.1315 10.1578 17.8442 11.0338 17.8442 12.1022C17.8442 13.2895 16.9423 14.5064 15.0663 14.5064C12.9142 14.5064 12.1728 13.0816 12.0849 12.2506L13.743 11.8796Z" fill="#161624"/>
<path fill-rule="evenodd" clip-rule="evenodd" d="M19.0728 3.49353H21.0114V6.39957H22.1618V8.10221H21.0114V14.2837H19.0728V8.10221H18.0786V6.39957H19.0728V3.49353Z" fill="#161624"/>
<path fill-rule="evenodd" clip-rule="evenodd" d="M26.4069 8.55512C25.4328 8.55512 24.618 9.28243 24.618 10.618C24.618 11.9391 25.4328 12.6958 26.4069 12.6958C27.3959 12.6958 28.1811 11.9539 28.1811 10.618C28.1811 9.28243 27.3959 8.55512 26.4069 8.55512ZM22.7421 14.2838V3.53906H24.6474V7.78341C24.9669 7.26397 25.7527 6.78897 26.8139 6.78897C28.9082 6.78897 30.115 8.43668 30.115 10.6033C30.115 12.8146 28.7773 14.462 26.7411 14.462C25.7527 14.462 24.9962 14.0169 24.6178 13.3933V14.2838H22.7421Z" fill="#161624"/>
<path fill-rule="evenodd" clip-rule="evenodd" d="M36.1646 10.6328C36.1646 9.25272 35.2923 8.55502 34.3469 8.55502C33.402 8.55502 32.5292 9.25272 32.5292 10.6328C32.5292 11.9983 33.402 12.7108 34.3469 12.7108C35.2923 12.7108 36.1646 12.0131 36.1646 10.6328ZM38.0993 10.6328C38.0993 12.8737 36.4847 14.5064 34.347 14.5064C32.2092 14.5064 30.5954 12.8737 30.5954 10.6328C30.5954 8.37707 32.2092 6.75952 34.347 6.75952C36.4847 6.75952 38.0993 8.37707 38.0993 10.6328Z" fill="#161624"/>
<path fill-rule="evenodd" clip-rule="evenodd" d="M44.1486 10.6328C44.1486 9.25272 43.276 8.55502 42.3306 8.55502C41.3858 8.55502 40.5129 9.25272 40.5129 10.6328C40.5129 11.9983 41.3858 12.7108 42.3306 12.7108C43.276 12.7108 44.1486 12.0131 44.1486 10.6328ZM46.0828 10.6328C46.0828 12.8737 44.4686 14.5064 42.3305 14.5064C40.1928 14.5064 38.579 12.8737 38.579 10.6328C38.579 8.37707 40.1928 6.75952 42.3305 6.75952C44.4686 6.75952 46.0828 8.37707 46.0828 10.6328Z" fill="#161624"/>
<path fill-rule="evenodd" clip-rule="evenodd" d="M51.173 10.0541L54.0957 14.2839H51.7252L49.8349 11.4937L49.0349 12.3543V14.2839H47.1011V3.53894H49.0349V9.69785L51.5073 6.98192H54.0374L51.173 10.0541Z" fill="#161624"/>
<path d="M69.4906 6.08993C69.4906 5.24595 70.1335 4.56177 70.9266 4.56177H84.3262C85.1193 4.56177 85.7623 5.24595 85.7623 6.08993V12.9666C85.7623 13.8106 85.1193 14.4948 84.3262 14.4948H70.9266C70.1335 14.4948 69.4906 13.8106 69.4906 12.9666V6.08993Z" fill="#161624"/>
<path d="M75.0814 7.1139H76.235C76.6243 7.1139 76.9163 7.21507 77.1109 7.41741C77.3055 7.61975 77.4029 7.91636 77.4029 8.30724V8.7832C77.4029 9.17409 77.3055 9.4707 77.1109 9.67304C76.9163 9.87538 76.6243 9.97655 76.235 9.97655H75.8647V11.9425H75.0814V7.1139ZM76.235 9.28675C76.3632 9.28675 76.4581 9.25226 76.5198 9.18328C76.5863 9.1143 76.6195 8.99704 76.6195 8.83149V8.25896C76.6195 8.09341 76.5863 7.97614 76.5198 7.90716C76.4581 7.83819 76.3632 7.8037 76.235 7.8037H75.8647V9.28675H76.235Z" fill="url(#paint0_linear_206_48688)"/>
<path d="M77.9707 7.1139H79.1314C79.535 7.1139 79.8293 7.20587 80.0145 7.38982C80.1996 7.56917 80.2922 7.84738 80.2922 8.22447V8.52108C80.2922 9.02233 80.1213 9.33964 79.7795 9.473V9.48679C79.9694 9.54198 80.1023 9.65464 80.1782 9.82479C80.259 9.99494 80.2993 10.2226 80.2993 10.5077V11.3561C80.2993 11.4941 80.3041 11.6068 80.3135 11.6941C80.323 11.7769 80.3468 11.8597 80.3848 11.9425H79.5872C79.5587 11.8643 79.5397 11.7907 79.5302 11.7217C79.5207 11.6527 79.516 11.5286 79.516 11.3492V10.4663C79.516 10.2456 79.478 10.0915 79.402 10.0041C79.3308 9.91676 79.205 9.87308 79.0246 9.87308H78.754V11.9425H77.9707V7.1139ZM79.0389 9.18328C79.1955 9.18328 79.3118 9.1442 79.3878 9.06602C79.4685 8.98784 79.5089 8.85678 79.5089 8.67284V8.30035C79.5089 8.1256 79.4756 7.99914 79.4092 7.92096C79.3475 7.84278 79.2478 7.8037 79.1101 7.8037H78.754V9.18328H79.0389Z" fill="url(#paint1_linear_206_48688)"/>
<path d="M82.1175 12.0114C81.7329 12.0114 81.4386 11.9057 81.2344 11.6941C81.0303 11.4826 80.9282 11.1837 80.9282 10.7974V8.25896C80.9282 7.87267 81.0303 7.57376 81.2344 7.36223C81.4386 7.15069 81.7329 7.04492 82.1175 7.04492C82.502 7.04492 82.7963 7.15069 83.0005 7.36223C83.2046 7.57376 83.3067 7.87267 83.3067 8.25896V10.7974C83.3067 11.1837 83.2046 11.4826 83.0005 11.6941C82.7963 11.9057 82.502 12.0114 82.1175 12.0114ZM82.1175 11.3216C82.3881 11.3216 82.5234 11.163 82.5234 10.8457V8.21067C82.5234 7.89337 82.3881 7.73472 82.1175 7.73472C81.8469 7.73472 81.7116 7.89337 81.7116 8.21067V10.8457C81.7116 11.163 81.8469 11.3216 82.1175 11.3216Z" fill="url(#paint2_linear_206_48688)"/>
<path fill-rule="evenodd" clip-rule="evenodd" d="M59.691 0.479546L60.8412 0.631259C60.6987 1.44025 61.2887 2.18951 62.1586 2.30442C63.0285 2.41933 63.8491 1.8568 63.9913 1.04786L65.2496 1.21393C65.1075 2.02287 65.6975 2.77213 66.5673 2.88668C67.4373 3.00195 68.2575 2.43911 68.4001 1.63048L69.6539 1.79613C69.5117 2.60471 70.1016 3.3536 70.9716 3.46887C71.8412 3.58384 72.6618 3.0213 72.8043 2.21231L73.9587 2.36486L71.2909 17.5282L70.1365 17.3757C70.279 16.5667 69.6887 15.8182 68.8188 15.7029C67.9489 15.588 67.1286 16.1505 66.9861 16.9595L65.7323 16.7938C65.8744 15.9849 65.2844 15.2356 64.4146 15.1211C63.5446 15.0058 62.7244 15.5687 62.5818 16.3773L61.3238 16.2112C61.466 15.4022 60.876 14.6533 60.0061 14.5384C59.1362 14.4231 58.316 14.986 58.1735 15.795L57.0232 15.6429L59.691 0.479546Z" fill="#EF4065"/>
<path fill-rule="evenodd" clip-rule="evenodd" d="M59.691 0.479546L60.8412 0.631259C60.6987 1.44025 61.2887 2.18951 62.1586 2.30442C63.0285 2.41933 63.8491 1.8568 63.9913 1.04786L65.2496 1.21393C65.1075 2.02287 65.6975 2.77213 66.5673 2.88668C67.4373 3.00195 68.2575 2.43911 68.4001 1.63048L69.6539 1.79613C69.5117 2.60471 70.1016 3.3536 70.9716 3.46887C71.8412 3.58384 72.6618 3.0213 72.8043 2.21231L73.9587 2.36486L71.2909 17.5282L70.1365 17.3757C70.279 16.5667 69.6887 15.8182 68.8188 15.7029C67.9489 15.588 67.1286 16.1505 66.9861 16.9595L65.7323 16.7938C65.8744 15.9849 65.2844 15.2356 64.4146 15.1211C63.5446 15.0058 62.7244 15.5687 62.5818 16.3773L61.3238 16.2112C61.466 15.4022 60.876 14.6533 60.0061 14.5384C59.1362 14.4231 58.316 14.986 58.1735 15.795L57.0232 15.6429L59.691 0.479546Z" fill="url(#paint3_linear_206_48688)"/>
<path fill-rule="evenodd" clip-rule="evenodd" d="M65.9703 8.13941C65.9703 7.41301 66.3298 6.99756 67.0295 6.99756C67.7292 6.99756 68.0886 7.41301 68.0886 8.13941V8.28196H67.4085V8.09381C67.4085 7.76957 67.2782 7.6464 67.049 7.6464C66.8203 7.6464 66.6896 7.76957 66.6896 8.09381C66.6896 8.52253 66.9858 8.79138 67.3062 9.08225C67.6838 9.42501 68.0951 9.79836 68.0951 10.5C68.0951 11.2264 67.7292 11.6418 67.023 11.6418C66.3168 11.6418 65.9508 11.2264 65.9508 10.5V10.2213H66.6306V10.5456C66.6306 10.8698 66.7743 10.9865 67.0034 10.9865C67.2322 10.9865 67.3763 10.8698 67.3763 10.5456C67.3763 10.1168 67.08 9.84799 66.7595 9.55712C66.3818 9.21436 65.9703 8.84101 65.9703 8.13941ZM62.5747 8.17173C62.5747 7.44532 62.2217 7.04962 61.5025 7.04962H60.443V11.5897H61.1622V9.88415H61.5025C62.2217 9.88415 62.5747 9.48845 62.5747 8.76204V8.17173ZM65.3912 11.5897L64.6589 7.04962H63.6059L62.8737 11.5897H63.5343L63.6584 10.766H64.5409L64.6654 11.5897H65.3912ZM69.7215 6.99756C69.0222 6.99756 68.6623 7.41301 68.6623 8.13941C68.6623 8.84101 69.0738 9.21436 69.4515 9.55712C69.772 9.84799 70.0683 10.1168 70.0683 10.5456C70.0683 10.8698 69.9242 10.9865 69.6958 10.9865C69.4667 10.9865 69.323 10.8698 69.323 10.5456V10.2213H68.6428V10.5C68.6428 11.2264 69.0091 11.6418 69.715 11.6418C70.4212 11.6418 70.7871 11.2264 70.7871 10.5C70.7871 9.79836 70.3758 9.42501 69.9982 9.08225C69.6778 8.79138 69.3816 8.52253 69.3816 8.09381C69.3816 7.76957 69.5123 7.6464 69.7414 7.6464C69.9702 7.6464 70.1008 7.76957 70.1008 8.09381V8.28196H70.7806V8.13941C70.7806 7.41301 70.4212 6.99756 69.7215 6.99756ZM61.1622 7.69809H61.5024C61.7312 7.69809 61.8554 7.80187 61.8554 8.12647V8.80727C61.8554 9.13151 61.7312 9.23529 61.5024 9.23529H61.1622V7.69809ZM64.0426 7.85382L63.6962 10.1497H64.3894L64.0426 7.85382Z" fill="#181B1F"/>
<defs>
<linearGradient id="paint0_linear_206_48688" x1="76.7646" y1="-36.8364" x2="86.47" y2="-36.8364" gradientUnits="userSpaceOnUse">
<stop stop-color="#CDB968"/>
<stop offset="0.510417" stop-color="#E5D88B"/>
<stop offset="1" stop-color="#C7AC7A"/>
</linearGradient>
<linearGradient id="paint1_linear_206_48688" x1="76.7646" y1="-36.8364" x2="86.47" y2="-36.8364" gradientUnits="userSpaceOnUse">
<stop stop-color="#CDB968"/>
<stop offset="0.510417" stop-color="#E5D88B"/>
<stop offset="1" stop-color="#C7AC7A"/>
</linearGradient>
<linearGradient id="paint2_linear_206_48688" x1="76.7646" y1="-36.8364" x2="86.47" y2="-36.8364" gradientUnits="userSpaceOnUse">
<stop stop-color="#CDB968"/>
<stop offset="0.510417" stop-color="#E5D88B"/>
<stop offset="1" stop-color="#C7AC7A"/>
</linearGradient>
<linearGradient id="paint3_linear_206_48688" x1="55.9699" y1="8.94825" x2="74.542" y2="9.88395" gradientUnits="userSpaceOnUse">
<stop stop-color="#BBA85D"/>
<stop offset="0.510417" stop-color="#EBDD8B"/>
<stop offset="1" stop-color="#998840"/>
</linearGradient>
</defs>
</svg>
